<svg xmlns="http://www.w3.org/2000/svg" viewBox="0 0 680 820" width="680" height="820">
  <defs>
    <style>
      .logo-text { font-family: 'Barlow Condensed', 'Arial Narrow', sans-serif; font-weight: 900; letter-spacing: -0.5px; }
      .sub-text  { font-family: 'Plus Jakarta Sans', 'Arial', sans-serif; font-size: 11px; letter-spacing: 0.15em; }
      .label     { font-family: 'Plus Jakarta Sans', 'Arial', sans-serif; font-size: 11px; letter-spacing: 0.09em; fill: #5a7850; text-transform: uppercase; }
    </style>
  </defs>

  <!-- ═══════════════════════════════════════
       SYGNATURA GŁÓWNA — CIEMNE TŁO
  ════════════════════════════════════════ -->
  <rect x="0" y="0" width="680" height="110" rx="16" fill="#060a06"/>

  <!-- ikona -->
  <rect x="20" y="20" width="70" height="70" rx="17" fill="#0f1f0f"/>
  <!-- głowa -->
  <circle cx="55" cy="38" r="9.5" fill="#b4f03a"/>
  <!-- tułów -->
  <rect x="50" y="49" width="10" height="18" rx="5" fill="#b4f03a"/>
  <!-- ręka lewa -->
  <line x1="50" y1="53" x2="37" y2="64" stroke="#b4f03a" stroke-width="5.5" stroke-linecap="round"/>
  <!-- ręka prawa uniesiona -->
  <line x1="60" y1="51" x2="71" y2="36" stroke="#b4f03a" stroke-width="5.5" stroke-linecap="round"/>
  <!-- noga lewa -->
  <line x1="51" y1="67" x2="43" y2="82" stroke="#b4f03a" stroke-width="5.5" stroke-linecap="round"/>
  <!-- noga prawa -->
  <line x1="59" y1="67" x2="67" y2="82" stroke="#b4f03a" stroke-width="5.5" stroke-linecap="round"/>

  <!-- tekst -->
  <text x="108" y="62" class="logo-text" font-size="44" fill="#eef8e8">chceByc<tspan fill="#b4f03a">.fit</tspan></text>
  <text x="110" y="84" class="sub-text" fill="#3a5a3a">PLATFORMA FITNESS Z AI</text>

  <!-- ═══════════════════════════════════════
       SYGNATURA GŁÓWNA — JASNE TŁO
  ════════════════════════════════════════ -->
  <rect x="0" y="126" width="680" height="110" rx="16" fill="#f0f8e8"/>

  <rect x="20" y="146" width="70" height="70" rx="17" fill="#0f1f0f"/>
  <circle cx="55" cy="164" r="9.5" fill="#b4f03a"/>
  <rect x="50" y="175" width="10" height="18" rx="5" fill="#b4f03a"/>
  <line x1="50" y1="179" x2="37" y2="190" stroke="#b4f03a" stroke-width="5.5" stroke-linecap="round"/>
  <line x1="60" y1="177" x2="71" y2="162" stroke="#b4f03a" stroke-width="5.5" stroke-linecap="round"/>
  <line x1="51" y1="193" x2="43" y2="208" stroke="#b4f03a" stroke-width="5.5" stroke-linecap="round"/>
  <line x1="59" y1="193" x2="67" y2="208" stroke="#b4f03a" stroke-width="5.5" stroke-linecap="round"/>

  <text x="108" y="188" class="logo-text" font-size="44" fill="#0a140a">chceByc<tspan fill="#7aaa22">.fit</tspan></text>
  <text x="110" y="210" class="sub-text" fill="#5a7850">PLATFORMA FITNESS Z AI</text>

  <!-- ═══════════════════════════════════════
       IKONY — WSZYSTKIE WARIANTY
  ════════════════════════════════════════ -->

  <!-- 80px kwadrat ciemny -->
  <rect x="20" y="270" width="80" height="80" rx="20" fill="#0f1f0f"/>
  <circle cx="60" cy="289" r="10" fill="#b4f03a"/>
  <rect x="55" y="301" width="10" height="19" rx="5" fill="#b4f03a"/>
  <line x1="55" y1="305" x2="41" y2="317" stroke="#b4f03a" stroke-width="6" stroke-linecap="round"/>
  <line x1="65" y1="303" x2="77" y2="287" stroke="#b4f03a" stroke-width="6" stroke-linecap="round"/>
  <line x1="56" y1="320" x2="47" y2="337" stroke="#b4f03a" stroke-width="6" stroke-linecap="round"/>
  <line x1="64" y1="320" x2="73" y2="337" stroke="#b4f03a" stroke-width="6" stroke-linecap="round"/>
  <text x="60" y="368" class="label" text-anchor="middle">80px · ciemny</text>

  <!-- 80px koło ciemne -->
  <circle cx="160" cy="310" r="40" fill="#0f1f0f"/>
  <circle cx="160" cy="289" r="10" fill="#b4f03a"/>
  <rect x="155" y="301" width="10" height="19" rx="5" fill="#b4f03a"/>
  <line x1="155" y1="305" x2="141" y2="317" stroke="#b4f03a" stroke-width="6" stroke-linecap="round"/>
  <line x1="165" y1="303" x2="177" y2="287" stroke="#b4f03a" stroke-width="6" stroke-linecap="round"/>
  <line x1="156" y1="320" x2="147" y2="337" stroke="#b4f03a" stroke-width="6" stroke-linecap="round"/>
  <line x1="164" y1="320" x2="173" y2="337" stroke="#b4f03a" stroke-width="6" stroke-linecap="round"/>
  <text x="160" y="368" class="label" text-anchor="middle">80px · koło</text>

  <!-- 80px kwadrat limonkowy (inwers) -->
  <rect x="220" y="270" width="80" height="80" rx="20" fill="#b4f03a"/>
  <circle cx="260" cy="289" r="10" fill="#0a1a0a"/>
  <rect x="255" y="301" width="10" height="19" rx="5" fill="#0a1a0a"/>
  <line x1="255" y1="305" x2="241" y2="317" stroke="#0a1a0a" stroke-width="6" stroke-linecap="round"/>
  <line x1="265" y1="303" x2="277" y2="287" stroke="#0a1a0a" stroke-width="6" stroke-linecap="round"/>
  <line x1="256" y1="320" x2="247" y2="337" stroke="#0a1a0a" stroke-width="6" stroke-linecap="round"/>
  <line x1="264" y1="320" x2="273" y2="337" stroke="#0a1a0a" stroke-width="6" stroke-linecap="round"/>
  <text x="260" y="368" class="label" text-anchor="middle">80px · inwers</text>

  <!-- 80px bez tła / outline -->
  <rect x="320" y="270" width="80" height="80" rx="20" fill="none" stroke="#b4f03a" stroke-width="1.5"/>
  <circle cx="360" cy="289" r="10" fill="#b4f03a"/>
  <rect x="355" y="301" width="10" height="19" rx="5" fill="#b4f03a"/>
  <line x1="355" y1="305" x2="341" y2="317" stroke="#b4f03a" stroke-width="6" stroke-linecap="round"/>
  <line x1="365" y1="303" x2="377" y2="287" stroke="#b4f03a" stroke-width="6" stroke-linecap="round"/>
  <line x1="356" y1="320" x2="347" y2="337" stroke="#b4f03a" stroke-width="6" stroke-linecap="round"/>
  <line x1="364" y1="320" x2="373" y2="337" stroke="#b4f03a" stroke-width="6" stroke-linecap="round"/>
  <text x="360" y="368" class="label" text-anchor="middle">80px · outline</text>

  <!-- 56px -->
  <rect x="430" y="282" width="56" height="56" rx="14" fill="#0f1f0f"/>
  <circle cx="458" cy="296" r="7" fill="#b4f03a"/>
  <rect x="454" y="305" width="8" height="14" rx="4" fill="#b4f03a"/>
  <line x1="454" y1="308" x2="444" y2="317" stroke="#b4f03a" stroke-width="4.5" stroke-linecap="round"/>
  <line x1="462" y1="306" x2="471" y2="294" stroke="#b4f03a" stroke-width="4.5" stroke-linecap="round"/>
  <line x1="455" y1="319" x2="448" y2="330" stroke="#b4f03a" stroke-width="4.5" stroke-linecap="round"/>
  <line x1="461" y1="319" x2="468" y2="330" stroke="#b4f03a" stroke-width="4.5" stroke-linecap="round"/>
  <text x="458" y="354" class="label" text-anchor="middle">56px</text>

  <!-- 36px -->
  <rect x="516" y="292" width="36" height="36" rx="9" fill="#0f1f0f"/>
  <circle cx="534" cy="302" r="4.5" fill="#b4f03a"/>
  <rect x="531" y="308" width="6" height="10" rx="3" fill="#b4f03a"/>
  <line x1="531" y1="310" x2="523" y2="317" stroke="#b4f03a" stroke-width="3" stroke-linecap="round"/>
  <line x1="537" y1="309" x2="544" y2="300" stroke="#b4f03a" stroke-width="3" stroke-linecap="round"/>
  <line x1="532" y1="318" x2="526" y2="326" stroke="#b4f03a" stroke-width="3" stroke-linecap="round"/>
  <line x1="536" y1="318" x2="542" y2="326" stroke="#b4f03a" stroke-width="3" stroke-linecap="round"/>
  <text x="534" y="344" class="label" text-anchor="middle">36px</text>

  <!-- 24px -->
  <rect x="576" y="298" width="24" height="24" rx="6" fill="#0f1f0f"/>
  <circle cx="588" cy="305" r="3" fill="#b4f03a"/>
  <rect x="585" y="309" width="6" height="7" rx="3" fill="#b4f03a"/>
  <line x1="585" y1="311" x2="578" y2="317" stroke="#b4f03a" stroke-width="2.5" stroke-linecap="round"/>
  <line x1="591" y1="310" x2="597" y2="302" stroke="#b4f03a" stroke-width="2.5" stroke-linecap="round"/>
  <line x1="586" y1="316" x2="581" y2="322" stroke="#b4f03a" stroke-width="2.5" stroke-linecap="round"/>
  <line x1="590" y1="316" x2="595" y2="322" stroke="#b4f03a" stroke-width="2.5" stroke-linecap="round"/>
  <text x="588" y="340" class="label" text-anchor="middle">24px</text>

  <!-- ═══════════════════════════════════════
       WERSJA POZIOMA KOMPAKTOWA
  ════════════════════════════════════════ -->
  <rect x="0" y="400" width="360" height="64" rx="14" fill="#060a06"/>
  <rect x="14" y="410" width="44" height="44" rx="11" fill="#0f1f0f"/>
  <circle cx="36" cy="422" r="6" fill="#b4f03a"/>
  <rect x="33" y="429" width="6" height="12" rx="3" fill="#b4f03a"/>
  <line x1="33" y1="432" x2="25" y2="439" stroke="#b4f03a" stroke-width="3.5" stroke-linecap="round"/>
  <line x1="39" y1="431" x2="46" y2="421" stroke="#b4f03a" stroke-width="3.5" stroke-linecap="round"/>
  <line x1="34" y1="441" x2="28" y2="450" stroke="#b4f03a" stroke-width="3.5" stroke-linecap="round"/>
  <line x1="38" y1="441" x2="44" y2="450" stroke="#b4f03a" stroke-width="3.5" stroke-linecap="round"/>
  <text x="70" y="437" class="logo-text" font-size="26" fill="#eef8e8">chceByc<tspan fill="#b4f03a">.fit</tspan></text>
  <text x="72" y="452" class="sub-text" font-size="9" fill="#3a5a3a" letter-spacing="0.12em">PLATFORMA FITNESS Z AI</text>
  <text x="180" y="482" class="label" text-anchor="middle">Wersja kompaktowa · ciemna</text>

  <!-- wersja kompaktowa jasna -->
  <rect x="380" y="400" width="300" height="64" rx="14" fill="#f0f8e8"/>
  <rect x="394" y="410" width="44" height="44" rx="11" fill="#0f1f0f"/>
  <circle cx="416" cy="422" r="6" fill="#b4f03a"/>
  <rect x="413" y="429" width="6" height="12" rx="3" fill="#b4f03a"/>
  <line x1="413" y1="432" x2="405" y2="439" stroke="#b4f03a" stroke-width="3.5" stroke-linecap="round"/>
  <line x1="419" y1="431" x2="426" y2="421" stroke="#b4f03a" stroke-width="3.5" stroke-linecap="round"/>
  <line x1="414" y1="441" x2="408" y2="450" stroke="#b4f03a" stroke-width="3.5" stroke-linecap="round"/>
  <line x1="418" y1="441" x2="424" y2="450" stroke="#b4f03a" stroke-width="3.5" stroke-linecap="round"/>
  <text x="450" y="437" class="logo-text" font-size="26" fill="#0a140a">chceByc<tspan fill="#7aaa22">.fit</tspan></text>
  <text x="452" y="452" class="sub-text" font-size="9" fill="#5a7850" letter-spacing="0.12em">PLATFORMA FITNESS Z AI</text>
  <text x="530" y="482" class="label" text-anchor="middle">Wersja kompaktowa · jasna</text>

  <!-- ═══════════════════════════════════════
       PALETA KOLORÓW
  ════════════════════════════════════════ -->
  <rect x="0"   y="506" width="100" height="40" rx="8" fill="#b4f03a"/>
  <text x="50"  y="562" class="label" text-anchor="middle">#b4f03a · Limonka</text>

  <rect x="114" y="506" width="100" height="40" rx="8" fill="#7aaa22"/>
  <text x="164" y="562" class="label" text-anchor="middle">#7aaa22 · Ciemna</text>

  <rect x="228" y="506" width="100" height="40" rx="8" fill="#0f1f0f"/>
  <text x="278" y="562" class="label" text-anchor="middle">#0f1f0f · Czerń</text>

  <rect x="342" y="506" width="100" height="40" rx="8" fill="#eef8e8" stroke="#b4f03a" stroke-width="1"/>
  <text x="392" y="562" class="label" text-anchor="middle">#eef8e8 · Biel</text>

  <rect x="456" y="506" width="100" height="40" rx="8" fill="#5a7850"/>
  <text x="506" y="562" class="label" text-anchor="middle">#5a7850 · Muted</text>

  <!-- ═══════════════════════════════════════
       TYPOGRAFIA
  ════════════════════════════════════════ -->
  <text x="0" y="610" class="logo-text" font-size="48" fill="#0a140a">chceByc<tspan fill="#b4f03a">.fit</tspan></text>
  <text x="0" y="640" style="font-family:'Plus Jakarta Sans','Arial',sans-serif;font-size:14px;fill:#5a7850;letter-spacing:0.05em;">Barlow Condensed 900 · Plus Jakarta Sans 400/600</text>

  <!-- ═══════════════════════════════════════
       NAV LOGO (do wklejenia w kod)
  ════════════════════════════════════════ -->
  <rect x="0" y="668" width="680" height="2" fill="#1c2e1c" rx="1"/>
  <text x="0" y="696" class="label">Nav logo · 22px · do wklejenia w header</text>
  <rect x="0" y="710" width="200" height="36" rx="8" fill="#060a06"/>
  <rect x="8" y="716" width="24" height="24" rx="6" fill="#0f1f0f"/>
  <circle cx="20" cy="723" r="3.5" fill="#b4f03a"/>
  <rect x="18" y="727" width="4" height="7" rx="2" fill="#b4f03a"/>
  <line x1="18" y1="729" x2="12" y2="734" stroke="#b4f03a" stroke-width="2.5" stroke-linecap="round"/>
  <line x1="22" y1="728" x2="27" y2="721" stroke="#b4f03a" stroke-width="2.5" stroke-linecap="round"/>
  <line x1="19" y1="734" x2="14" y2="740" stroke="#b4f03a" stroke-width="2.5" stroke-linecap="round"/>
  <line x1="21" y1="734" x2="26" y2="740" stroke="#b4f03a" stroke-width="2.5" stroke-linecap="round"/>
  <text x="38" y="733" class="logo-text" font-size="18" fill="#eef8e8">chceByc<tspan fill="#b4f03a">.fit</tspan></text>
</svg>